<?xml version="1.0" standalone="no"?>
<!DOCTYPE svg PUBLIC "-//W3C//DTD SVG 20010904//EN"
 "http://www.w3.org/TR/2001/REC-SVG-20010904/DTD/svg10.dtd">
<svg version="1.0" xmlns="http://www.w3.org/2000/svg"
 width="700.000000pt" height="700.000000pt" viewBox="0 0 700.000000 700.000000"
 preserveAspectRatio="xMidYMid meet">
<metadata>
Created by potrace 1.11, written by Peter Selinger 2001-2013
</metadata>
<g transform="translate(0.000000,700.000000) scale(0.100000,-0.100000)"
fill="#000000" stroke="none">
<path d="M4217 6419 c-79 -18 -138 -66 -170 -138 -20 -44 -21 -61 -18 -371 2
-179 4 -375 5 -437 l1 -112 -350 -247 c-192 -137 -356 -255 -362 -263 -97
-123 -64 -298 70 -368 24 -12 439 -145 551 -175 l38 -11 -53 -50 c-30 -27
-128 -121 -219 -207 -91 -87 -181 -172 -200 -190 -19 -18 -85 -80 -146 -139
-60 -58 -153 -146 -205 -196 -53 -49 -177 -168 -278 -264 -100 -96 -191 -182
-202 -192 -11 -9 -95 -89 -187 -177 -92 -87 -185 -176 -207 -197 -22 -20 -109
-103 -194 -184 -85 -80 -167 -157 -181 -171 -15 -14 -69 -65 -121 -115 -52
-49 -170 -162 -263 -250 -93 -88 -190 -180 -216 -205 -25 -25 -125 -119 -221
-210 -95 -91 -212 -201 -258 -245 -229 -217 -246 -245 -246 -390 0 -71 5 -100
22 -135 32 -69 96 -134 160 -166 51 -26 69 -29 148 -29 156 0 166 8 594 465
24 25 109 115 191 200 81 85 160 169 175 185 15 17 101 107 190 200 89 94 181
190 204 215 51 54 275 290 350 369 63 66 328 345 452 475 48 50 102 107 120
127 19 20 100 106 181 190 80 85 168 177 195 205 26 28 129 136 229 240 162
169 304 318 389 409 17 17 48 52 71 76 l41 46 77 -251 c100 -328 117 -368 172
-410 61 -47 123 -62 191 -48 97 20 97 20 390 435 40 56 89 126 110 156 21 29
56 78 78 108 l40 55 185 -2 c102 0 295 -3 430 -5 268 -3 301 2 367 53 78 62
108 196 64 285 -12 23 -92 137 -179 252 -86 116 -197 264 -246 330 l-89 120
138 410 c129 384 137 414 130 460 -4 27 -13 62 -21 77 -42 82 -140 148 -219
148 -25 0 -189 -50 -445 -137 l-405 -136 -250 186 c-138 103 -261 194 -274
204 -14 10 -50 37 -80 61 -94 73 -168 97 -244 81z"/>
</g>
</svg>
